<svg xmlns="http://www.w3.org/2000/svg" viewBox="0 0 1280 1024">
	<style>.st0{fill:#616161}.st1{fill:#ffffff}</style>
	<g id="Cup">
		<!-- <g id="text">
			<path class="st0" d="M411.02 857.84h16.95v90.03h-10.53v.13l-47.26-60.75v60.62h-16.95v-89.9h13.74l44.05 55.74v-55.87zM492.57 884.55h15.03v63.32h-14.77l-.77-9.25c-3.6 7.45-13.49 11.05-20.55 11.17-18.75.13-32.62-11.43-32.62-33.65 0-21.83 14.51-33.26 33.01-33.13 8.48 0 16.57 3.98 20.16 10.27l.51-8.73zm-38.02 31.6c0 12.07 8.35 19.26 18.75 19.26 24.66 0 24.66-38.4 0-38.4-10.4 0-18.75 7.07-18.75 19.14zM567.44 947.87v-33.13c0-9.63-5.27-16.95-15.28-16.95-9.63 0-16.18 8.09-16.18 17.72v32.36h-15.54v-63.44h14l1.03 8.61c6.42-6.29 12.84-9.5 20.81-9.5 14.9 0 26.84 11.17 26.84 31.08v33.26h-15.68zM659.52 916.28c0 18.24-12.46 33.01-33.01 33.01-20.55 0-32.88-14.77-32.88-33.01 0-18.11 12.59-33.01 32.75-33.01 20.17 0 33.14 14.9 33.14 33.01zm-50.22 0c0 9.63 5.78 18.62 17.21 18.62s17.21-8.99 17.21-18.62c0-9.5-6.68-18.75-17.21-18.75-11.3 0-17.21 9.24-17.21 18.75zM724.63 939.78c-7.32 7.19-15.03 10.02-24.4 10.02-18.37 0-33.65-11.05-33.65-33.52 0-22.48 15.28-33.52 33.65-33.52 8.99 0 15.93 2.57 22.86 9.38l-9.89 10.4c-3.73-3.34-8.35-5.01-12.72-5.01-10.53 0-18.24 7.71-18.24 18.75 0 12.07 8.22 18.49 17.98 18.49 5.01 0 10.02-1.41 13.87-5.27l10.54 10.28zM781.78 884.55h15.03v63.32h-14.77l-.77-9.25c-3.6 7.45-13.49 11.05-20.55 11.17-18.75.13-32.62-11.43-32.62-33.65 0-21.83 14.51-33.26 33.01-33.13 8.48 0 16.57 3.98 20.16 10.27l.51-8.73zm-38.01 31.6c0 12.07 8.35 19.26 18.75 19.26 24.66 0 24.66-38.4 0-38.4-10.41 0-18.75 7.07-18.75 19.14zM815.17 947.87V899.2h-11.82v-13.74h11.82v-4.24c0-16.95 11.43-24.79 24.15-24.79 5.52 0 11.3 1.8 16.44 5.14l-5.78 11.69c-3.34-2.18-6.42-3.34-9.63-3.34-5.39 0-9.5 3.6-9.5 11.3v4.24h18.62v13.74h-18.62v48.67h-15.68zM869.34 921.78c1.03 7.83 7.83 13.48 18.88 13.48 5.78 0 13.36-2.18 16.95-5.91l10.02 9.89c-6.68 6.93-17.59 10.27-27.23 10.27-21.83 0-34.81-13.49-34.81-33.78 0-19.26 13.1-33.13 33.65-33.13 21.19 0 34.42 13.1 31.98 39.17h-49.44zm34.42-12.97c-1.03-8.22-7.45-12.33-16.44-12.33-8.48 0-15.41 4.11-17.72 12.33h34.16z" />
		</g> -->
		<path id="steam" class="st1" d="M581.67 49.51c-31.16 0-56.44 25.25-56.44 56.44 0 31.16 25.28 56.44 56.44 56.44h21.55c19.22 0 34.76 15.67 34.63 34.89l-.18 38.8c0 21.58-17.59 39.06-39.19 38.88l-16.8-.13h-.45c-31.16 0-56.44 25.28-56.44 56.44s25.28 56.44 56.44 56.44c31.19 0 56.44-25.28 56.44-56.44v-21.55c0-19.22 15.67-34.76 34.92-34.63l21.53.18c31.19 0 56.44-25.28 56.44-56.44 0-31.19-25.25-56.44-56.44-56.44h-17.25c-21.58 0-39.06-17.62-38.88-39.19l.13-16.8v-.45c0-31.18-25.28-56.44-56.45-56.44z" />
		<path class="st0" d="M982.95 375.14c-18.7-.68-36.31 3.72-51.58 11.91-6.21 3.33-13.73-1.29-13.73-8.34v-28.99c0-10.19-8.26-18.45-18.45-18.45H370.85c-10.19 0-18.45 8.26-18.45 18.45v199.7s-.12 53.68 5.66 82.94 17.45 69.02 41.03 111.02c25.56 45.54 51.21 69.34 69.35 81.59 12.06 8.15 26.31 12.45 40.86 12.45h251.44c14.56 0 28.8-4.3 40.86-12.45 18.13-12.25 43.78-36.05 69.35-81.59 23.58-42 35.25-81.76 41.03-111.02 3.41-17.28 4.77-43.08 5.31-61.3.18-5.96 6.63-9.62 11.81-6.67 14.77 8.42 31.85 13.24 50.07 13.24 56.75 0 102.6-46.67 101.25-103.73-1.25-53.22-44.26-96.82-97.47-98.76zm-3.78 157.87c-31.29 0-56.66-25.37-56.66-56.66s25.37-56.66 56.66-56.66c31.29 0 56.66 25.37 56.66 56.66s-25.37 56.66-56.66 56.66z" />
	</g>
	<g id="Nano">
		<circle class="st1" cx="457.48" cy="602.94" r="31.64" />
		<path class="st1" d="M678.49 539.4c0 17.47-14.16 31.64-31.64 31.64-17.47 0-31.64-14.17-31.64-31.64v-12.08c0-10.77-8.79-19.49-19.56-19.41l-21.75.1c-12.1 0-21.9 9.86-21.8 21.97l.07 9.42v.25c0 17.47-14.17 31.64-31.64 31.64s-31.64-14.17-31.64-31.64c0-17.48 14.17-31.64 31.64-31.64h12.08c10.77 0 19.49-8.79 19.41-19.57l-.1-12.07c0-17.48 14.17-31.64 31.64-31.64 17.48 0 31.64 14.16 31.64 31.64v9.67c0 12.1 9.88 21.9 21.97 21.8l9.42-.07h.25c17.49-.01 31.65 14.16 31.65 31.63zM867.79 476.35c0 17.47-14.17 31.64-31.64 31.64h-9.67c-12.11 0-21.9 9.86-21.8 21.97l.07 9.42v.25c0 17.47-14.17 31.64-31.64 31.64h-9.67c-12.11 0-21.9 9.86-21.81 21.97l.07 9.42v.26c0 17.47-14.16 31.64-31.64 31.64-17.47 0-31.64-14.17-31.64-31.64 0-17.48 14.17-31.64 31.64-31.64h.01l-.01-.01h12.08c10.79 0 19.5-8.79 19.41-19.57l-.09-12.07c0-17.48 14.16-31.64 31.64-31.64h12.07c10.79 0 19.5-8.79 19.41-19.57l-.09-12.07c0-17.48 14.16-31.64 31.64-31.64 17.49 0 31.66 14.16 31.66 31.64z" />
	</g>
</svg>